<svg version="1.1" id="Layer_1" xmlns="http://www.w3.org/2000/svg" xmlns:xlink="http://www.w3.org/1999/xlink" x="0px" y="0px"
	 width="100%" viewBox="0 0 1296 1296" enable-background="new 0 0 1296 1296" xml:space="preserve">
<path fill="#FFFFFF" opacity="1.000000" stroke="none" 
	d="
M693.000000,1297.000000 
	C462.000000,1297.000000 231.500000,1297.000000 1.000000,1297.000000 
	C1.000000,865.000000 1.000000,433.000000 1.000000,1.000000 
	C433.000000,1.000000 865.000000,1.000000 1297.000000,1.000000 
	C1297.000000,433.000000 1297.000000,865.000000 1297.000000,1297.000000 
	C1095.833374,1297.000000 894.666687,1297.000000 693.000000,1297.000000 
M295.965607,146.495728 
	C285.833099,154.309662 274.931335,161.322205 265.754028,170.131287 
	C252.997040,182.376404 240.873825,195.429321 229.678314,209.117142 
	C214.960892,227.110977 203.898453,247.465607 195.402267,269.156982 
	C186.398804,292.143524 181.272812,316.026672 181.241852,340.645020 
	C181.224548,354.391266 182.921738,368.260742 185.146912,381.861938 
	C189.053329,405.739502 198.267960,427.831879 210.964951,448.342194 
	C224.402252,470.048431 241.054596,488.990173 260.729218,505.418365 
	C276.195709,518.332825 292.769623,529.465515 310.545074,538.739441 
	C335.193604,551.599121 361.258972,560.788635 388.437408,566.698303 
	C408.732727,571.111389 429.317108,573.603516 450.056122,573.849609 
	C462.757507,574.000366 475.489197,572.854919 488.183472,571.955872 
	C498.516266,571.224060 508.905396,570.547791 519.106323,568.860229 
	C536.526550,565.978333 553.918091,562.763123 571.139893,558.881653 
	C592.541687,554.058105 613.512817,547.642761 633.626160,538.723633 
	C640.621094,535.621765 647.512146,532.285645 655.124573,528.742798 
	C655.124573,535.151245 655.124573,540.893250 655.124573,546.604614 
	C687.015747,546.604614 718.394348,546.604614 750.179626,546.604614 
	C750.179626,489.616455 750.179626,433.022552 750.179626,376.373627 
	C760.973267,376.373627 771.353455,376.373627 781.727417,376.373627 
	C781.727417,442.340027 781.727417,507.932404 781.727417,574.113037 
	C765.411682,574.113037 749.358704,574.113037 733.251953,574.113037 
	C733.251953,604.296448 733.251953,633.890198 733.251953,663.672729 
	C806.880798,663.672729 880.257324,663.672729 953.594971,663.672729 
	C953.594971,633.631470 953.594971,603.919250 953.594971,573.798889 
	C937.261414,573.798889 921.329773,573.798889 905.382446,573.798889 
	C905.382446,507.675568 905.382446,441.965210 905.382446,376.000000 
	C917.415344,376.000000 929.067688,376.000000 940.720032,376.000000 
	C964.052124,376.000031 987.384583,375.949371 1010.715698,376.102386 
	C1012.462341,376.113861 1015.354858,377.223938 1015.729675,378.436798 
	C1016.974976,382.466431 1017.257446,386.786438 1018.011292,390.976715 
	C1019.682068,400.263672 1021.414856,409.539490 1023.108582,418.745087 
	C1049.292480,418.745087 1074.891357,418.745087 1100.668213,418.745087 
	C1100.668213,370.778778 1100.668213,323.067902 1100.668213,275.400909 
	C915.963745,275.400909 731.591187,275.400909 547.300903,275.400909 
	C547.300903,323.395691 547.300903,370.988983 547.300903,418.790344 
	C573.203613,418.790344 598.805664,418.790344 624.616516,418.790344 
	C626.748291,407.951752 628.912354,397.242645 630.949219,386.509399 
	C632.941528,376.010803 632.884644,376.000000 643.648254,376.000000 
	C651.039001,376.000000 658.429749,376.000000 666.148254,376.000000 
	C661.459900,398.402954 651.413025,417.192535 636.880249,433.470642 
	C623.114807,448.889252 606.293945,460.274139 587.494812,468.912445 
	C562.126587,480.569275 535.265137,485.428711 507.683411,485.744751 
	C494.283142,485.898254 480.783905,483.831024 467.448914,481.930847 
	C439.779816,477.988129 413.703552,469.230835 389.391510,455.187378 
	C372.016663,445.151093 356.681427,432.684387 344.577789,416.825958 
	C322.023560,387.274872 316.488037,353.542999 323.332672,317.674377 
	C327.239166,297.202820 335.599182,278.382080 347.996979,261.413422 
	C356.141083,250.266724 365.314789,240.122009 376.084625,231.556229 
	C389.353271,221.002960 403.786285,212.379990 419.477081,205.707672 
	C438.683014,197.540573 458.687775,192.539673 479.333801,191.241806 
	C496.455841,190.165482 513.654724,190.712036 530.782349,193.808289 
	C552.549988,197.743393 573.317322,204.433365 593.247070,213.752029 
	C611.457886,222.266983 628.422058,232.895325 643.612732,246.156631 
	C647.789185,249.802643 652.198486,251.225540 657.884827,251.147156 
	C682.712158,250.804947 707.546875,251.000000 732.378906,251.000000 
	C734.142273,251.000000 735.905640,251.000000 737.583008,251.000000 
	C737.583008,198.941772 737.583008,147.564453 737.583008,96.317947 
	C707.570740,96.317947 677.976379,96.317947 647.961792,96.317947 
	C647.961792,110.514740 647.961792,124.399361 647.961792,138.345764 
	C638.452698,133.451920 629.413269,128.522797 620.141174,124.079002 
	C590.399536,109.824745 559.086975,100.839485 526.490906,95.857742 
	C505.933441,92.715874 485.365143,90.989655 464.598114,92.024773 
	C454.214813,92.542313 443.717316,92.535591 433.498413,94.178017 
	C417.382629,96.768211 401.225677,99.699249 385.501282,104.002823 
	C353.462677,112.771408 323.836456,127.055824 295.965607,146.495728 
M235.015976,922.534485 
	C232.334808,919.948120 229.366425,917.596375 227.026047,914.731567 
	C219.850525,905.948486 218.366272,895.039307 218.239655,884.475220 
	C218.000046,864.482849 216.477478,844.391724 219.977631,824.475403 
	C221.861542,813.755615 225.574203,803.812317 234.579483,797.256470 
	C249.533112,786.370117 274.607971,787.147217 289.986115,796.146912 
	C291.550354,797.062378 292.665558,799.781128 292.866821,801.776245 
	C293.299469,806.065247 293.155975,810.435547 292.949677,814.758301 
	C292.791260,818.076355 294.106873,819.126709 297.328461,819.053894 
	C304.823364,818.884399 312.341858,818.692810 319.817383,819.109314 
	C324.697937,819.381287 326.173889,817.584961 326.063263,812.974121 
	C325.847504,803.980835 325.721893,794.966980 326.099304,785.984314 
	C326.344513,780.148926 324.189453,776.243958 319.162018,773.597778 
	C314.611969,771.202759 310.260132,768.385681 305.580750,766.291138 
	C294.703613,761.422119 283.138000,758.535217 271.320251,758.203674 
	C260.680176,757.905029 249.835037,758.413330 239.357452,760.195129 
	C218.423920,763.754944 202.043991,774.586670 192.038315,793.849915 
	C183.934692,809.451355 182.882553,826.623779 182.185806,843.621582 
	C181.609879,857.671387 182.796234,871.786560 182.959930,885.875671 
	C183.099106,897.853516 184.484818,909.568481 189.022614,920.747314 
	C194.023972,933.068176 202.120789,942.856995 213.469711,949.807617 
	C226.884186,958.023499 241.979797,960.225952 257.244354,960.829407 
	C265.045929,961.137878 272.930023,959.789185 280.755157,958.979797 
	C296.481964,957.353027 310.774780,951.825500 323.925781,943.073242 
	C327.263916,940.851746 328.962585,938.030334 328.970367,934.239929 
	C329.025391,907.411194 328.993958,880.582214 329.006653,853.753357 
	C329.008240,850.396484 327.823944,848.882324 324.051361,848.916016 
	C304.056305,849.094788 284.057648,849.110718 264.063019,848.908691 
	C259.948975,848.867126 258.952637,850.646423 258.984436,854.139221 
	C259.040466,860.304382 259.197998,866.478760 258.935699,872.633240 
	C258.735443,877.332642 260.449310,879.194275 265.257050,879.073486 
	C275.035278,878.827881 284.824005,879.000000 295.000000,879.000000 
	C295.000000,891.548828 294.879913,903.671936 295.072784,915.790100 
	C295.131042,919.450012 293.913635,921.920166 290.541809,923.020508 
	C284.918335,924.855774 279.318848,927.106079 273.526306,928.012146 
	C260.487671,930.051514 247.472733,930.363953 235.015976,922.534485 
M760.997620,981.503540 
	C759.109863,983.383423 756.944946,985.071411 755.453308,987.225525 
	C754.726379,988.275330 754.590759,990.732910 755.321228,991.636047 
	C761.204651,998.909241 768.923279,1003.585693 777.566528,1007.048279 
	C792.837524,1013.166138 808.655273,1013.338501 824.435181,1010.815491 
	C836.596802,1008.871094 847.821899,1003.774475 856.119751,994.237244 
	C866.546814,982.252686 870.940002,967.849304 870.977783,952.111755 
	C871.052917,920.793579 871.000000,889.475098 871.000000,858.156738 
	C871.000000,847.012756 871.000000,847.012756 881.900635,847.000061 
	C882.400391,846.999512 882.906860,846.946899 883.398865,847.008484 
	C886.807434,847.434937 888.190857,846.126648 888.066101,842.534119 
	C887.835022,835.878662 887.847046,829.204529 888.062378,822.547974 
	C888.175171,819.060486 886.999512,817.883728 883.481079,817.934204 
	C871.489319,818.106323 859.493530,818.000061 847.499268,818.000000 
	C838.585938,818.000000 838.589478,818.000244 837.920715,827.049316 
	C837.901794,827.305115 837.610596,827.540771 837.056885,828.367004 
	C835.627502,827.004578 834.392212,825.521362 832.869873,824.443054 
	C830.125549,822.499023 827.375610,820.427979 824.335388,819.060364 
	C812.875122,813.904785 800.844299,814.110657 788.761169,816.033447 
	C778.399719,817.682190 769.324951,822.985779 763.343079,830.907043 
	C753.665344,843.722229 750.672729,859.362549 750.046326,875.259460 
	C749.520874,888.593811 749.730530,901.949646 753.051819,914.979797 
	C756.134155,927.072205 761.750793,937.684021 772.341125,945.049438 
	C779.122131,949.765625 786.499573,952.177551 794.809998,953.242981 
	C806.360107,954.723877 817.165283,953.584351 827.353088,948.082886 
	C830.962280,946.133972 834.104370,943.320068 837.000000,941.232544 
	C837.000000,946.112061 837.000244,950.995361 837.000000,955.878662 
	C836.999084,972.103577 822.890686,984.885803 806.844421,982.957092 
	C796.552124,981.719971 786.904175,978.865295 779.369019,971.005127 
	C776.740601,968.263428 773.816406,968.128418 770.972290,971.404175 
	C768.031128,974.791748 764.673218,977.817627 760.997620,981.503540 
M1052.993286,1201.277588 
	C1052.995483,1193.614624 1052.881104,1185.948853 1053.054810,1178.289795 
	C1053.128540,1175.030640 1052.000122,1173.775024 1048.722046,1173.952515 
	C1044.947998,1174.156860 1041.154419,1174.000122 1037.000000,1174.000122 
	C1037.000000,1171.936890 1037.000000,1170.311646 1037.000000,1168.686523 
	C1037.000000,1149.029419 1037.320557,1129.364136 1036.818848,1109.719849 
	C1036.652710,1103.219238 1035.300537,1096.396606 1032.871216,1090.374634 
	C1026.528076,1074.650391 1015.532410,1064.340454 997.819275,1061.795776 
	C984.004822,1059.811035 971.288330,1061.433960 959.587402,1069.163696 
	C957.491882,1070.547974 955.784668,1072.520142 953.000000,1075.030396 
	C953.000000,1072.180664 953.000000,1070.593628 953.000000,1069.006592 
	C953.000000,1050.015869 953.011353,1031.025024 952.984680,1012.034241 
	C952.981567,1009.818359 953.719604,1007.008911 949.969849,1007.006470 
	C935.643494,1006.997253 921.317017,1006.976562 906.990784,1007.024231 
	C903.995728,1007.034241 902.759155,1008.577148 902.938232,1011.711914 
	C903.184814,1016.029053 903.000000,1020.370789 903.000000,1024.702026 
	C903.000000,1035.969482 903.006714,1036.206665 914.255981,1035.887207 
	C918.979797,1035.753052 920.118469,1037.239746 920.100281,1041.822021 
	C919.930786,1084.467407 920.000000,1127.113525 920.000000,1169.759521 
	C920.000000,1171.044556 920.000000,1172.329712 920.000000,1174.000000 
	C915.617371,1174.000000 911.651672,1174.153198 907.703979,1173.952637 
	C904.406433,1173.785156 902.801941,1174.655762 902.931946,1178.364624 
	C903.171021,1185.186279 903.089050,1192.023926 902.958313,1198.851440 
	C902.902588,1201.760742 903.761475,1203.063965 906.916931,1203.048462 
	C926.573547,1202.952026 946.231140,1202.960571 965.887878,1203.042358 
	C968.831543,1203.054688 970.118591,1202.170166 970.048706,1199.046387 
	C969.892151,1192.053345 969.901733,1185.052246 970.045593,1178.058716 
	C970.107483,1175.050659 969.061218,1173.830566 965.991577,1173.956177 
	C961.735229,1174.130615 957.466309,1174.000244 953.000000,1174.000244 
	C953.000000,1164.417603 952.873840,1155.439697 953.031250,1146.466675 
	C953.237183,1134.724976 953.267517,1122.957764 954.128845,1111.257080 
	C954.803711,1102.088501 963.029114,1093.309814 971.579346,1091.160767 
	C982.125244,1088.510132 992.516907,1092.414673 998.448547,1100.823730 
	C1002.586853,1106.690552 1003.701172,1113.430176 1003.866760,1120.134399 
	C1004.273926,1136.616455 1004.006042,1153.115112 1003.989319,1169.607178 
	C1003.987854,1171.032837 1003.836060,1172.458252 1003.747437,1174.000244 
	C999.164978,1174.000244 994.998047,1173.825684 990.861206,1174.101685 
	C989.543152,1174.189575 987.218994,1175.442505 987.196350,1176.216187 
	C986.935913,1185.117554 987.030334,1194.029419 987.030334,1202.999634 
	C1008.570068,1202.999634 1029.392334,1203.009277 1050.214355,1202.967529 
	C1051.118408,1202.965698 1052.021240,1202.492798 1052.993286,1201.277588 
M540.000000,1090.500000 
	C540.000000,1118.252563 540.000000,1146.005005 540.000000,1174.000244 
	C534.612000,1174.000244 529.799377,1174.126343 524.997498,1173.954712 
	C521.917053,1173.844604 520.891907,1175.073730 520.954895,1178.069946 
	C521.098450,1184.897217 521.165894,1191.735229 520.932861,1198.557617 
	C520.809204,1202.179810 522.245544,1203.075562 525.624512,1203.057861 
	C547.281067,1202.944458 568.938782,1202.954712 590.595520,1203.050293 
	C593.731018,1203.064087 595.158569,1202.236450 595.056396,1198.838013 
	C594.861328,1192.346680 594.908691,1185.843750 595.034790,1179.348999 
	C595.108154,1175.571289 593.533142,1173.880371 589.730530,1173.972290 
	C584.948303,1174.087769 580.161133,1174.000122 575.000000,1174.000122 
	C575.000000,1171.952393 575.000000,1170.322510 575.000000,1168.692749 
	C575.000000,1147.701904 575.000000,1126.711182 575.000000,1105.720337 
	C575.000000,1084.896118 575.113098,1064.070801 574.906189,1043.248657 
	C574.863953,1038.998901 576.175842,1037.746582 580.319336,1037.916138 
	C587.637268,1038.215454 594.982544,1038.182251 602.303650,1037.925537 
	C606.145020,1037.790771 607.286194,1039.244629 607.057251,1042.874023 
	C606.805969,1046.856445 607.218323,1050.882202 606.937500,1054.860718 
	C606.666016,1058.707153 607.808228,1060.268799 611.932739,1060.085327 
	C618.915894,1059.774536 625.930725,1059.800659 632.916626,1060.077881 
	C636.834473,1060.233398 638.151123,1059.056519 638.087036,1055.015015 
	C637.862549,1040.858154 637.835144,1026.692383 638.097656,1012.536865 
	C638.179382,1008.131409 636.877258,1006.894043 632.471313,1006.907043 
	C582.826904,1007.053894 533.181763,1006.999939 483.536865,1007.000000 
	C482.703888,1007.000000 481.601593,1006.660767 481.088898,1007.066406 
	C479.599884,1008.244202 477.203552,1009.699402 477.177643,1011.083557 
	C476.896698,1026.071777 476.964294,1041.067383 477.040253,1056.060303 
	C477.053192,1058.609985 478.123352,1060.166992 481.262390,1060.072632 
	C488.752319,1059.847412 496.263702,1059.766724 503.746490,1060.089233 
	C508.106201,1060.277222 509.096008,1058.255249 509.026245,1054.550659 
	C508.923920,1049.118530 508.999908,1043.683105 508.999908,1038.295410 
	C519.635437,1038.295410 529.701477,1038.295410 540.000000,1038.295410 
	C540.000000,1055.559692 540.000000,1072.529907 540.000000,1090.500000 
M1101.000000,905.500000 
	C1100.531982,886.170410 1102.590576,866.719421 1098.912354,847.548706 
	C1096.941284,837.275330 1092.480957,828.501038 1082.723999,822.826111 
	C1074.021484,817.764343 1064.548950,815.837891 1054.994995,815.189087 
	C1035.620483,813.873291 1016.421082,815.306580 998.277893,823.310486 
	C995.553650,824.512329 993.830261,826.105591 993.918945,829.583496 
	C994.156677,838.904846 994.139465,848.239441 993.926392,857.561951 
	C993.849365,860.930969 995.470154,861.951477 998.261841,861.975708 
	C1005.756531,862.040771 1013.252563,862.041321 1020.747253,861.975586 
	C1023.542908,861.951111 1025.328613,860.919922 1025.057861,857.550537 
	C1024.791748,854.240662 1024.825806,850.878662 1025.092163,847.568787 
	C1025.190308,846.350159 1026.281128,844.227417 1026.999756,844.192932 
	C1035.351685,843.791870 1043.746948,843.253540 1052.069092,843.761292 
	C1055.632568,843.978760 1059.649414,845.844177 1062.423340,848.187988 
	C1070.105103,854.678589 1069.037354,863.822632 1068.899048,873.000000 
	C1058.268555,873.000000 1047.947266,872.480774 1037.705322,873.158997 
	C1029.013672,873.734680 1020.115295,874.718445 1011.838074,877.252075 
	C996.758728,881.867737 984.662964,894.322815 984.992188,914.097351 
	C985.047607,917.427673 984.773682,920.778015 985.042480,924.087402 
	C985.846069,933.980347 989.258850,943.118469 997.033508,949.294128 
	C1013.019958,961.992310 1031.310913,963.199524 1050.493164,958.115662 
	C1058.057373,956.111084 1064.225586,951.997192 1070.055420,945.395386 
	C1070.055420,949.901794 1070.055420,953.290955 1070.055420,956.753845 
	C1085.870972,956.753845 1101.267578,956.753845 1117.561768,956.753845 
	C1117.561768,948.136108 1117.719604,939.753418 1117.382324,931.390686 
	C1117.334717,930.210754 1114.959839,928.316040 1113.507568,928.155945 
	C1109.455933,927.709534 1105.323120,928.000732 1101.000000,928.000732 
	C1101.000000,920.445312 1101.000000,913.472595 1101.000000,905.500000 
M398.885590,816.035950 
	C398.141113,816.352783 397.424347,816.790466 396.648041,816.968567 
	C382.049255,820.316956 370.911743,828.319397 362.923096,841.076660 
	C356.051788,852.049622 354.190460,864.388550 353.196777,876.725098 
	C352.141632,889.824524 352.814545,903.011719 355.966522,915.955811 
	C360.937073,936.368408 372.666748,950.750183 392.893280,957.361877 
	C407.191528,962.035767 421.895111,961.839600 436.408295,958.715210 
	C450.337952,955.716553 462.682709,949.458740 472.209015,938.358215 
	C474.439392,935.759277 475.072449,933.477966 472.501648,931.137329 
	C468.021851,927.058777 463.249176,923.301636 458.774139,919.218079 
	C454.497192,915.315308 453.458984,915.316467 449.134369,919.327271 
	C437.309814,930.293945 423.316193,933.385132 407.991058,929.385681 
	C395.224304,926.053833 389.567871,916.336975 386.845612,904.065002 
	C385.798096,899.342834 387.242218,898.768494 391.217529,898.942383 
	C396.539795,899.175171 401.879883,899.000000 407.212341,899.000000 
	C428.042236,899.000000 448.872131,899.008972 469.702026,898.994690 
	C476.144745,898.990295 477.342621,898.127075 476.923828,892.070679 
	C476.190399,881.464172 475.616547,870.780701 473.801392,860.333557 
	C472.022308,850.093628 467.801941,840.605286 460.393616,832.875916 
	C448.692627,820.667908 434.184845,815.141724 417.510101,815.058289 
	C411.596527,815.028687 405.679565,815.668762 398.885590,816.035950 
M666.487000,1167.990845 
	C660.900940,1161.522705 657.582153,1154.230957 658.038269,1145.000000 
	C659.922058,1145.000000 661.542603,1145.000000 663.163147,1145.000000 
	C688.825745,1145.000000 714.488281,1145.002686 740.150879,1144.998169 
	C746.994080,1144.997070 748.597778,1143.361694 747.970764,1136.475830 
	C747.081848,1126.712891 746.649170,1116.846680 744.864258,1107.239746 
	C741.068665,1086.810791 729.880920,1072.158691 709.784424,1064.900635 
	C697.915894,1060.614258 685.908569,1060.069580 673.588806,1061.977295 
	C657.858032,1064.413330 644.997620,1071.494507 635.732483,1084.683350 
	C627.064026,1097.022827 625.155762,1111.348755 624.110229,1125.749268 
	C623.144287,1139.053467 624.390686,1152.326782 628.045349,1165.212158 
	C633.048462,1182.851807 643.844177,1195.446045 661.214355,1202.049805 
	C674.973694,1207.280884 689.060730,1207.040649 703.378845,1205.077759 
	C719.165894,1202.913818 732.319275,1196.069946 743.122925,1184.418579 
	C745.245178,1182.129883 746.099731,1179.700439 743.890808,1177.580322 
	C738.927002,1172.815674 733.560242,1168.472900 728.400757,1163.909424 
	C726.109741,1161.883057 723.817505,1161.624756 721.666138,1163.892700 
	C714.785950,1171.145386 706.424988,1174.978027 696.481506,1176.316040 
	C685.405273,1177.806396 675.523621,1176.065796 666.487000,1167.990845 
M496.000031,870.652039 
	C495.666718,873.906250 495.146301,877.153992 495.032745,880.415894 
	C494.562897,893.912720 495.343964,907.356628 499.080811,920.372742 
	C503.695282,936.445740 513.304871,948.360107 529.080811,955.102295 
	C543.870422,961.422852 559.016785,962.135498 574.458313,958.925781 
	C585.297791,956.672668 594.992920,951.582886 602.620300,943.624939 
	C613.517517,932.255432 617.988525,917.650818 618.717773,902.482056 
	C619.379578,888.716614 618.895996,874.638855 616.709656,861.054138 
	C613.419189,840.609070 601.804932,825.928589 581.580078,818.900696 
	C563.525024,812.626892 545.635498,813.447693 528.160461,820.513000 
	C518.449585,824.439209 510.686951,831.676453 505.217499,840.403320 
	C499.724304,849.168030 497.458191,859.442322 496.000031,870.652039 
M844.227661,1205.999878 
	C845.977783,1205.666748 847.716492,1205.247925 849.479858,1205.014771 
	C859.494629,1203.690430 869.091125,1200.990845 877.863342,1195.911011 
	C879.281250,1195.089722 880.823364,1193.034790 880.862061,1191.513306 
	C881.124695,1181.191162 881.168884,1170.853271 880.816711,1160.536377 
	C880.763611,1158.982300 878.343994,1156.288574 876.900391,1156.206299 
	C869.261841,1155.771362 861.584412,1155.935425 853.922485,1156.040894 
	C851.358459,1156.076172 849.650696,1157.144043 849.944824,1160.282227 
	C850.207947,1163.089600 849.899902,1165.945557 850.024353,1168.772217 
	C850.193848,1172.623779 848.528503,1175.425781 844.729004,1175.600830 
	C836.952698,1175.959106 828.985352,1176.723999 821.398254,1175.481079 
	C811.960815,1173.934937 805.375244,1167.512573 803.136353,1158.067139 
	C799.491333,1142.689819 799.509949,1127.129517 802.784729,1111.633179 
	C804.080933,1105.500000 806.728638,1100.322266 812.005310,1096.345459 
	C821.309448,1089.333130 831.785767,1090.201904 842.059570,1091.751953 
	C850.115356,1092.967407 849.999939,1093.732544 850.000000,1101.736328 
	C850.000061,1103.568848 850.097595,1105.407715 849.977905,1107.232422 
	C849.793457,1110.042603 851.019043,1111.075684 853.799011,1111.036743 
	C861.460938,1110.929932 869.128174,1110.877319 876.787354,1111.056641 
	C880.128845,1111.134888 881.101318,1109.836914 881.053467,1106.645874 
	C880.906311,1096.818970 880.941162,1086.987915 881.033875,1077.159790 
	C881.063721,1073.995605 879.716858,1072.333862 876.868958,1070.910156 
	C855.712036,1060.334351 833.412476,1058.449951 810.691467,1063.197998 
	C797.244324,1066.008179 785.828918,1072.985718 777.935425,1084.985596 
	C770.446899,1096.369629 767.616638,1109.077515 767.152527,1122.263306 
	C766.751648,1133.653076 766.700684,1145.228394 768.318604,1156.458984 
	C769.527161,1164.847656 772.521179,1173.447998 776.684753,1180.848755 
	C786.731873,1198.707764 803.493042,1205.547241 823.300598,1205.977173 
	C829.961426,1206.121704 836.627991,1206.000000 844.227661,1205.999878 
M689.002441,868.789673 
	C691.052429,864.644775 692.431763,859.953125 695.280457,856.459595 
	C703.206055,846.740173 714.002808,845.750244 725.569824,847.799683 
	C729.847107,848.557556 734.221130,848.769592 738.998535,849.278198 
	C738.998535,839.458191 739.192688,830.327881 738.801636,821.222839 
	C738.738708,819.758179 736.192749,818.222534 734.545471,817.078430 
	C733.723816,816.507690 732.332397,816.789490 731.209717,816.614868 
	C719.930298,814.861145 709.059021,815.808472 699.331177,822.288391 
	C695.512939,824.831848 692.226685,828.173950 687.997925,831.743530 
	C687.997925,827.885864 688.327515,825.037048 687.870422,822.320679 
	C687.609497,820.770081 686.087158,818.204224 685.097595,818.187622 
	C669.507019,817.925354 653.910645,818.003418 638.261841,818.003418 
	C638.261841,827.906677 638.261841,837.302979 638.261841,847.121704 
	C643.587952,847.121704 648.664246,847.121704 653.734619,847.121704 
	C653.734619,874.267761 653.734619,900.986938 653.734619,928.001099 
	C649.505615,928.001099 645.515808,927.762085 641.584900,928.138306 
	C640.311584,928.260193 638.193787,929.962097 638.160339,930.996094 
	C637.882629,939.579834 638.002930,948.176392 638.002930,956.998779 
	C659.877014,956.998779 681.169006,956.967468 702.460632,957.034363 
	C705.467651,957.043823 706.067444,955.559082 706.031067,952.976685 
	C705.937317,946.317017 705.940735,939.654480 706.023438,932.994568 
	C706.068054,929.397034 704.380554,927.908081 700.880005,927.979492 
	C696.631775,928.066162 692.380432,928.000122 688.000000,928.000122 
	C688.000000,911.505737 687.942688,895.695557 688.045349,879.886353 
	C688.067444,876.476074 688.666321,873.069458 689.002441,868.789673 
M903.000000,933.839600 
	C903.000000,939.671753 903.328674,945.528259 902.898621,951.328552 
	C902.537903,956.192688 904.437561,957.162903 908.903015,957.096924 
	C925.395996,956.853088 941.894714,957.000000 958.391296,957.000000 
	C962.168335,957.000000 965.945374,957.000000 970.000000,957.000000 
	C970.000000,950.672668 970.000000,944.870178 970.000000,939.067688 
	C970.000000,928.015442 969.992188,927.767029 959.008179,928.113403 
	C954.113403,928.267822 952.866577,926.722717 952.895386,921.938782 
	C953.094299,888.946838 952.979370,855.953064 953.034790,822.960083 
	C953.039795,819.952820 952.880920,817.878418 948.893005,817.930054 
	C934.898254,818.111023 920.899475,818.041504 906.902832,817.964417 
	C904.205872,817.949585 902.919067,818.769531 902.964111,821.664307 
	C903.075745,828.827759 903.107727,835.996399 902.951904,843.158203 
	C902.881714,846.386108 904.388428,847.133240 907.226746,847.036072 
	C911.345398,846.894897 915.472534,846.999817 919.783691,846.999817 
	C919.783691,874.142578 919.783691,900.873901 919.783691,928.000061 
	C915.787598,928.000061 911.993835,928.072693 908.204346,927.978577 
	C904.743469,927.892639 902.856628,929.288025 903.000000,933.839600 
M920.000000,775.509766 
	C920.000427,780.166565 919.753052,784.845276 920.163208,789.465698 
	C920.275696,790.733154 922.324097,792.801086 923.540466,792.842407 
	C932.178772,793.136169 940.836548,793.136169 949.474792,792.841614 
	C950.686401,792.800354 952.797913,790.677795 952.841858,789.459106 
	C953.141235,781.154236 953.141357,772.828247 952.841064,764.523376 
	C952.797241,763.310242 950.674438,761.198914 949.457336,761.157593 
	C940.818970,760.863953 932.161255,760.863831 923.523071,761.158569 
	C922.312073,761.199829 920.362244,763.236145 920.161865,764.561707 
	C919.670166,767.813721 920.000366,771.189941 920.000000,775.509766 
M1079.863892,1176.015869 
	C1074.492554,1179.458740 1072.345581,1184.351318 1072.968140,1190.678711 
	C1073.516235,1196.249756 1076.103760,1200.244873 1081.428467,1202.080322 
	C1086.563110,1203.850220 1091.768921,1204.001343 1096.153687,1200.265625 
	C1101.422363,1195.776855 1102.922729,1186.346436 1099.554443,1181.050659 
	C1095.506714,1174.686646 1088.524170,1172.772217 1079.863892,1176.015869 
M974.748413,640.720825 
	C974.498962,643.475769 974.054688,646.229553 974.038757,648.985840 
	C974.000793,655.563599 978.818237,661.303467 985.930542,663.444519 
	C991.657471,665.168579 1000.558533,662.290833 1003.667542,657.710205 
	C1009.719971,648.793274 1007.472839,637.572021 998.527039,632.039978 
	C990.359497,626.989258 980.174011,630.416565 974.748413,640.720825 
z"/>
<path fill="#AA985D" opacity="1.000000" stroke="none" 
	d="
M296.233948,146.247009 
	C323.836456,127.055824 353.462677,112.771408 385.501282,104.002823 
	C401.225677,99.699249 417.382629,96.768211 433.498413,94.178017 
	C443.717316,92.535591 454.214813,92.542313 464.598114,92.024773 
	C485.365143,90.989655 505.933441,92.715874 526.490906,95.857742 
	C559.086975,100.839485 590.399536,109.824745 620.141174,124.079002 
	C629.413269,128.522797 638.452698,133.451920 647.961792,138.345764 
	C647.961792,124.399361 647.961792,110.514740 647.961792,96.317947 
	C677.976379,96.317947 707.570740,96.317947 737.583008,96.317947 
	C737.583008,147.564453 737.583008,198.941772 737.583008,251.000000 
	C735.905640,251.000000 734.142273,251.000000 732.378906,251.000000 
	C707.546875,251.000000 682.712158,250.804947 657.884827,251.147156 
	C652.198486,251.225540 647.789185,249.802643 643.612732,246.156631 
	C628.422058,232.895325 611.457886,222.266983 593.247070,213.752029 
	C573.317322,204.433365 552.549988,197.743393 530.782349,193.808289 
	C513.654724,190.712036 496.455841,190.165482 479.333801,191.241806 
	C458.687775,192.539673 438.683014,197.540573 419.477081,205.707672 
	C403.786285,212.379990 389.353271,221.002960 376.084625,231.556229 
	C365.314789,240.122009 356.141083,250.266724 347.996979,261.413422 
	C335.599182,278.382080 327.239166,297.202820 323.332672,317.674377 
	C316.488037,353.542999 322.023560,387.274872 344.577789,416.825958 
	C356.681427,432.684387 372.016663,445.151093 389.391510,455.187378 
	C413.703552,469.230835 439.779816,477.988129 467.448914,481.930847 
	C480.783905,483.831024 494.283142,485.898254 507.683411,485.744751 
	C535.265137,485.428711 562.126587,480.569275 587.494812,468.912445 
	C606.293945,460.274139 623.114807,448.889252 636.880249,433.470642 
	C651.413025,417.192535 661.459900,398.402954 666.148254,376.000000 
	C658.429749,376.000000 651.039001,376.000000 643.648254,376.000000 
	C632.884644,376.000000 632.941528,376.010803 630.949219,386.509399 
	C628.912354,397.242645 626.748291,407.951752 624.616516,418.790344 
	C598.805664,418.790344 573.203613,418.790344 547.300903,418.790344 
	C547.300903,370.988983 547.300903,323.395691 547.300903,275.400909 
	C731.591187,275.400909 915.963745,275.400909 1100.668213,275.400909 
	C1100.668213,323.067902 1100.668213,370.778778 1100.668213,418.745087 
	C1074.891357,418.745087 1049.292480,418.745087 1023.108582,418.745087 
	C1021.414856,409.539490 1019.682068,400.263672 1018.011292,390.976715 
	C1017.257446,386.786438 1016.974976,382.466431 1015.729675,378.436798 
	C1015.354858,377.223938 1012.462341,376.113861 1010.715698,376.102386 
	C987.384583,375.949371 964.052124,376.000031 940.720032,376.000000 
	C929.067688,376.000000 917.415344,376.000000 905.382446,376.000000 
	C905.382446,441.965210 905.382446,507.675568 905.382446,573.798889 
	C921.329773,573.798889 937.261414,573.798889 953.594971,573.798889 
	C953.594971,603.919250 953.594971,633.631470 953.594971,663.672729 
	C880.257324,663.672729 806.880798,663.672729 733.251953,663.672729 
	C733.251953,633.890198 733.251953,604.296448 733.251953,574.113037 
	C749.358704,574.113037 765.411682,574.113037 781.727417,574.113037 
	C781.727417,507.932404 781.727417,442.340027 781.727417,376.373627 
	C771.353455,376.373627 760.973267,376.373627 750.179626,376.373627 
	C750.179626,433.022552 750.179626,489.616455 750.179626,546.604614 
	C718.394348,546.604614 687.015747,546.604614 655.124573,546.604614 
	C655.124573,540.893250 655.124573,535.151245 655.124573,528.742798 
	C647.512146,532.285645 640.621094,535.621765 633.626160,538.723633 
	C613.512817,547.642761 592.541687,554.058105 571.139893,558.881653 
	C553.918091,562.763123 536.526550,565.978333 519.106323,568.860229 
	C508.905396,570.547791 498.516266,571.224060 488.183472,571.955872 
	C475.489197,572.854919 462.757507,574.000366 450.056122,573.849609 
	C429.317108,573.603516 408.732727,571.111389 388.437408,566.698303 
	C361.258972,560.788635 335.193604,551.599121 310.545074,538.739441 
	C292.769623,529.465515 276.195709,518.332825 260.729218,505.418365 
	C241.054596,488.990173 224.402252,470.048431 210.964951,448.342194 
	C198.267960,427.831879 189.053329,405.739502 185.146912,381.861938 
	C182.921738,368.260742 181.224548,354.391266 181.241852,340.645020 
	C181.272812,316.026672 186.398804,292.143524 195.402267,269.156982 
	C203.898453,247.465607 214.960892,227.110977 229.678314,209.117142 
	C240.873825,195.429321 252.997040,182.376404 265.754028,170.131287 
	C274.931335,161.322205 285.833099,154.309662 296.233948,146.247009 
z"/>
<path fill="#002A4E" opacity="1.000000" stroke="none" 
	d="
M235.291626,922.789917 
	C247.472733,930.363953 260.487671,930.051514 273.526306,928.012146 
	C279.318848,927.106079 284.918335,924.855774 290.541809,923.020508 
	C293.913635,921.920166 295.131042,919.450012 295.072784,915.790100 
	C294.879913,903.671936 295.000000,891.548828 295.000000,879.000000 
	C284.824005,879.000000 275.035278,878.827881 265.257050,879.073486 
	C260.449310,879.194275 258.735443,877.332642 258.935699,872.633240 
	C259.197998,866.478760 259.040466,860.304382 258.984436,854.139221 
	C258.952637,850.646423 259.948975,848.867126 264.063019,848.908691 
	C284.057648,849.110718 304.056305,849.094788 324.051361,848.916016 
	C327.823944,848.882324 329.008240,850.396484 329.006653,853.753357 
	C328.993958,880.582214 329.025391,907.411194 328.970367,934.239929 
	C328.962585,938.030334 327.263916,940.851746 323.925781,943.073242 
	C310.774780,951.825500 296.481964,957.353027 280.755157,958.979797 
	C272.930023,959.789185 265.045929,961.137878 257.244354,960.829407 
	C241.979797,960.225952 226.884186,958.023499 213.469711,949.807617 
	C202.120789,942.856995 194.023972,933.068176 189.022614,920.747314 
	C184.484818,909.568481 183.099106,897.853516 182.959930,885.875671 
	C182.796234,871.786560 181.609879,857.671387 182.185806,843.621582 
	C182.882553,826.623779 183.934692,809.451355 192.038315,793.849915 
	C202.043991,774.586670 218.423920,763.754944 239.357452,760.195129 
	C249.835037,758.413330 260.680176,757.905029 271.320251,758.203674 
	C283.138000,758.535217 294.703613,761.422119 305.580750,766.291138 
	C310.260132,768.385681 314.611969,771.202759 319.162018,773.597778 
	C324.189453,776.243958 326.344513,780.148926 326.099304,785.984314 
	C325.721893,794.966980 325.847504,803.980835 326.063263,812.974121 
	C326.173889,817.584961 324.697937,819.381287 319.817383,819.109314 
	C312.341858,818.692810 304.823364,818.884399 297.328461,819.053894 
	C294.106873,819.126709 292.791260,818.076355 292.949677,814.758301 
	C293.155975,810.435547 293.299469,806.065247 292.866821,801.776245 
	C292.665558,799.781128 291.550354,797.062378 289.986115,796.146912 
	C274.607971,787.147217 249.533112,786.370117 234.579483,797.256470 
	C225.574203,803.812317 221.861542,813.755615 219.977631,824.475403 
	C216.477478,844.391724 218.000046,864.482849 218.239655,884.475220 
	C218.366272,895.039307 219.850525,905.948486 227.026047,914.731567 
	C229.366425,917.596375 232.334808,919.948120 235.291626,922.789917 
z"/>
<path fill="#002A4E" opacity="1.000000" stroke="none" 
	d="
M761.247620,981.252625 
	C764.673218,977.817627 768.031128,974.791748 770.972290,971.404175 
	C773.816406,968.128418 776.740601,968.263428 779.369019,971.005127 
	C786.904175,978.865295 796.552124,981.719971 806.844421,982.957092 
	C822.890686,984.885803 836.999084,972.103577 837.000000,955.878662 
	C837.000244,950.995361 837.000000,946.112061 837.000000,941.232544 
	C834.104370,943.320068 830.962280,946.133972 827.353088,948.082886 
	C817.165283,953.584351 806.360107,954.723877 794.809998,953.242981 
	C786.499573,952.177551 779.122131,949.765625 772.341125,945.049438 
	C761.750793,937.684021 756.134155,927.072205 753.051819,914.979797 
	C749.730530,901.949646 749.520874,888.593811 750.046326,875.259460 
	C750.672729,859.362549 753.665344,843.722229 763.343079,830.907043 
	C769.324951,822.985779 778.399719,817.682190 788.761169,816.033447 
	C800.844299,814.110657 812.875122,813.904785 824.335388,819.060364 
	C827.375610,820.427979 830.125549,822.499023 832.869873,824.443054 
	C834.392212,825.521362 835.627502,827.004578 837.056885,828.367004 
	C837.610596,827.540771 837.901794,827.305115 837.920715,827.049316 
	C838.589478,818.000244 838.585938,818.000000 847.499268,818.000000 
	C859.493530,818.000061 871.489319,818.106323 883.481079,817.934204 
	C886.999512,817.883728 888.175171,819.060486 888.062378,822.547974 
	C887.847046,829.204529 887.835022,835.878662 888.066101,842.534119 
	C888.190857,846.126648 886.807434,847.434937 883.398865,847.008484 
	C882.906860,846.946899 882.400391,846.999512 881.900635,847.000061 
	C871.000000,847.012756 871.000000,847.012756 871.000000,858.156738 
	C871.000000,889.475098 871.052917,920.793579 870.977783,952.111755 
	C870.940002,967.849304 866.546814,982.252686 856.119751,994.237244 
	C847.821899,1003.774475 836.596802,1008.871094 824.435181,1010.815491 
	C808.655273,1013.338501 792.837524,1013.166138 777.566528,1007.048279 
	C768.923279,1003.585693 761.204651,998.909241 755.321228,991.636047 
	C754.590759,990.732910 754.726379,988.275330 755.453308,987.225525 
	C756.944946,985.071411 759.109863,983.383423 761.247620,981.252625 
M815.079834,923.997681 
	C826.268555,922.019226 832.355103,915.046875 835.344910,904.352417 
	C838.592896,892.734558 839.080383,881.004272 836.507690,869.448242 
	C835.084229,863.054443 832.522339,856.096741 828.289307,851.335022 
	C821.750244,843.979126 812.120911,843.540466 802.840820,845.736328 
	C793.281738,847.998108 788.614563,855.164917 785.993103,864.043152 
	C782.894104,874.538757 782.582275,885.352356 784.253357,895.931458 
	C785.327209,902.729980 787.818542,909.779297 791.476807,915.579407 
	C796.494263,923.534790 805.273132,924.716125 815.079834,923.997681 
z"/>
<path fill="#002A4E" opacity="1.000000" stroke="none" 
	d="
M1052.958984,1201.758545 
	C1052.021240,1202.492798 1051.118408,1202.965698 1050.214355,1202.967529 
	C1029.392334,1203.009277 1008.570068,1202.999634 987.030334,1202.999634 
	C987.030334,1194.029419 986.935913,1185.117554 987.196350,1176.216187 
	C987.218994,1175.442505 989.543152,1174.189575 990.861206,1174.101685 
	C994.998047,1173.825684 999.164978,1174.000244 1003.747437,1174.000244 
	C1003.836060,1172.458252 1003.987854,1171.032837 1003.989319,1169.607178 
	C1004.006042,1153.115112 1004.273926,1136.616455 1003.866760,1120.134399 
	C1003.701172,1113.430176 1002.586853,1106.690552 998.448547,1100.823730 
	C992.516907,1092.414673 982.125244,1088.510132 971.579346,1091.160767 
	C963.029114,1093.309814 954.803711,1102.088501 954.128845,1111.257080 
	C953.267517,1122.957764 953.237183,1134.724976 953.031250,1146.466675 
	C952.873840,1155.439697 953.000000,1164.417603 953.000000,1174.000244 
	C957.466309,1174.000244 961.735229,1174.130615 965.991577,1173.956177 
	C969.061218,1173.830566 970.107483,1175.050659 970.045593,1178.058716 
	C969.901733,1185.052246 969.892151,1192.053345 970.048706,1199.046387 
	C970.118591,1202.170166 968.831543,1203.054688 965.887878,1203.042358 
	C946.231140,1202.960571 926.573547,1202.952026 906.916931,1203.048462 
	C903.761475,1203.063965 902.902588,1201.760742 902.958313,1198.851440 
	C903.089050,1192.023926 903.171021,1185.186279 902.931946,1178.364624 
	C902.801941,1174.655762 904.406433,1173.785156 907.703979,1173.952637 
	C911.651672,1174.153198 915.617371,1174.000000 920.000000,1174.000000 
	C920.000000,1172.329712 920.000000,1171.044556 920.000000,1169.759521 
	C920.000000,1127.113525 919.930786,1084.467407 920.100281,1041.822021 
	C920.118469,1037.239746 918.979797,1035.753052 914.255981,1035.887207 
	C903.006714,1036.206665 903.000000,1035.969482 903.000000,1024.702026 
	C903.000000,1020.370789 903.184814,1016.029053 902.938232,1011.711914 
	C902.759155,1008.577148 903.995728,1007.034241 906.990784,1007.024231 
	C921.317017,1006.976562 935.643494,1006.997253 949.969849,1007.006470 
	C953.719604,1007.008911 952.981567,1009.818359 952.984680,1012.034241 
	C953.011353,1031.025024 953.000000,1050.015869 953.000000,1069.006592 
	C953.000000,1070.593628 953.000000,1072.180664 953.000000,1075.030396 
	C955.784668,1072.520142 957.491882,1070.547974 959.587402,1069.163696 
	C971.288330,1061.433960 984.004822,1059.811035 997.819275,1061.795776 
	C1015.532410,1064.340454 1026.528076,1074.650391 1032.871216,1090.374634 
	C1035.300537,1096.396606 1036.652710,1103.219238 1036.818848,1109.719849 
	C1037.320557,1129.364136 1037.000000,1149.029419 1037.000000,1168.686523 
	C1037.000000,1170.311646 1037.000000,1171.936890 1037.000000,1174.000122 
	C1041.154419,1174.000122 1044.947998,1174.156860 1048.722046,1173.952515 
	C1052.000122,1173.775024 1053.128540,1175.030640 1053.054810,1178.289795 
	C1052.881104,1185.948853 1052.995483,1193.614624 1052.958984,1201.758545 
z"/>
<path fill="#002A4E" opacity="1.000000" stroke="none" 
	d="
M540.000000,1090.000000 
	C540.000000,1072.529907 540.000000,1055.559692 540.000000,1038.295410 
	C529.701477,1038.295410 519.635437,1038.295410 508.999908,1038.295410 
	C508.999908,1043.683105 508.923920,1049.118530 509.026245,1054.550659 
	C509.096008,1058.255249 508.106201,1060.277222 503.746490,1060.089233 
	C496.263702,1059.766724 488.752319,1059.847412 481.262390,1060.072632 
	C478.123352,1060.166992 477.053192,1058.609985 477.040253,1056.060303 
	C476.964294,1041.067383 476.896698,1026.071777 477.177643,1011.083557 
	C477.203552,1009.699402 479.599884,1008.244202 481.088898,1007.066406 
	C481.601593,1006.660767 482.703888,1007.000000 483.536865,1007.000000 
	C533.181763,1006.999939 582.826904,1007.053894 632.471313,1006.907043 
	C636.877258,1006.894043 638.179382,1008.131409 638.097656,1012.536865 
	C637.835144,1026.692383 637.862549,1040.858154 638.087036,1055.015015 
	C638.151123,1059.056519 636.834473,1060.233398 632.916626,1060.077881 
	C625.930725,1059.800659 618.915894,1059.774536 611.932739,1060.085327 
	C607.808228,1060.268799 606.666016,1058.707153 606.937500,1054.860718 
	C607.218323,1050.882202 606.805969,1046.856445 607.057251,1042.874023 
	C607.286194,1039.244629 606.145020,1037.790771 602.303650,1037.925537 
	C594.982544,1038.182251 587.637268,1038.215454 580.319336,1037.916138 
	C576.175842,1037.746582 574.863953,1038.998901 574.906189,1043.248657 
	C575.113098,1064.070801 575.000000,1084.896118 575.000000,1105.720337 
	C575.000000,1126.711182 575.000000,1147.701904 575.000000,1168.692749 
	C575.000000,1170.322510 575.000000,1171.952393 575.000000,1174.000122 
	C580.161133,1174.000122 584.948303,1174.087769 589.730530,1173.972290 
	C593.533142,1173.880371 595.108154,1175.571289 595.034790,1179.348999 
	C594.908691,1185.843750 594.861328,1192.346680 595.056396,1198.838013 
	C595.158569,1202.236450 593.731018,1203.064087 590.595520,1203.050293 
	C568.938782,1202.954712 547.281067,1202.944458 525.624512,1203.057861 
	C522.245544,1203.075562 520.809204,1202.179810 520.932861,1198.557617 
	C521.165894,1191.735229 521.098450,1184.897217 520.954895,1178.069946 
	C520.891907,1175.073730 521.917053,1173.844604 524.997498,1173.954712 
	C529.799377,1174.126343 534.612000,1174.000244 540.000000,1174.000244 
	C540.000000,1146.005005 540.000000,1118.252563 540.000000,1090.000000 
z"/>
<path fill="#002A4E" opacity="1.000000" stroke="none" 
	d="
M1101.000000,905.999939 
	C1101.000000,913.472595 1101.000000,920.445312 1101.000000,928.000732 
	C1105.323120,928.000732 1109.455933,927.709534 1113.507568,928.155945 
	C1114.959839,928.316040 1117.334717,930.210754 1117.382324,931.390686 
	C1117.719604,939.753418 1117.561768,948.136108 1117.561768,956.753845 
	C1101.267578,956.753845 1085.870972,956.753845 1070.055420,956.753845 
	C1070.055420,953.290955 1070.055420,949.901794 1070.055420,945.395386 
	C1064.225586,951.997192 1058.057373,956.111084 1050.493164,958.115662 
	C1031.310913,963.199524 1013.019958,961.992310 997.033508,949.294128 
	C989.258850,943.118469 985.846069,933.980347 985.042480,924.087402 
	C984.773682,920.778015 985.047607,917.427673 984.992188,914.097351 
	C984.662964,894.322815 996.758728,881.867737 1011.838074,877.252075 
	C1020.115295,874.718445 1029.013672,873.734680 1037.705322,873.158997 
	C1047.947266,872.480774 1058.268555,873.000000 1068.899048,873.000000 
	C1069.037354,863.822632 1070.105103,854.678589 1062.423340,848.187988 
	C1059.649414,845.844177 1055.632568,843.978760 1052.069092,843.761292 
	C1043.746948,843.253540 1035.351685,843.791870 1026.999756,844.192932 
	C1026.281128,844.227417 1025.190308,846.350159 1025.092163,847.568787 
	C1024.825806,850.878662 1024.791748,854.240662 1025.057861,857.550537 
	C1025.328613,860.919922 1023.542908,861.951111 1020.747253,861.975586 
	C1013.252563,862.041321 1005.756531,862.040771 998.261841,861.975708 
	C995.470154,861.951477 993.849365,860.930969 993.926392,857.561951 
	C994.139465,848.239441 994.156677,838.904846 993.918945,829.583496 
	C993.830261,826.105591 995.553650,824.512329 998.277893,823.310486 
	C1016.421082,815.306580 1035.620483,813.873291 1054.994995,815.189087 
	C1064.548950,815.837891 1074.021484,817.764343 1082.723999,822.826111 
	C1092.480957,828.501038 1096.941284,837.275330 1098.912354,847.548706 
	C1102.590576,866.719421 1100.531982,886.170410 1101.000000,905.999939 
M1017.001526,911.771301 
	C1014.145203,920.677429 1019.398865,930.475342 1028.163940,931.826782 
	C1035.088989,932.894470 1042.322510,933.426086 1049.247559,932.655273 
	C1057.749756,931.708862 1065.474121,927.629639 1067.753662,918.662537 
	C1069.406982,912.159180 1068.925903,905.113281 1069.417969,898.000732 
	C1058.828857,898.000732 1049.160522,897.363525 1039.617554,898.184021 
	C1030.479248,898.969666 1021.183655,900.768311 1017.001526,911.771301 
z"/>
<path fill="#002A4E" opacity="1.000000" stroke="none" 
	d="
M399.324890,816.019531 
	C405.679565,815.668762 411.596527,815.028687 417.510101,815.058289 
	C434.184845,815.141724 448.692627,820.667908 460.393616,832.875916 
	C467.801941,840.605286 472.022308,850.093628 473.801392,860.333557 
	C475.616547,870.780701 476.190399,881.464172 476.923828,892.070679 
	C477.342621,898.127075 476.144745,898.990295 469.702026,898.994690 
	C448.872131,899.008972 428.042236,899.000000 407.212341,899.000000 
	C401.879883,899.000000 396.539795,899.175171 391.217529,898.942383 
	C387.242218,898.768494 385.798096,899.342834 386.845612,904.065002 
	C389.567871,916.336975 395.224304,926.053833 407.991058,929.385681 
	C423.316193,933.385132 437.309814,930.293945 449.134369,919.327271 
	C453.458984,915.316467 454.497192,915.315308 458.774139,919.218079 
	C463.249176,923.301636 468.021851,927.058777 472.501648,931.137329 
	C475.072449,933.477966 474.439392,935.759277 472.209015,938.358215 
	C462.682709,949.458740 450.337952,955.716553 436.408295,958.715210 
	C421.895111,961.839600 407.191528,962.035767 392.893280,957.361877 
	C372.666748,950.750183 360.937073,936.368408 355.966522,915.955811 
	C352.814545,903.011719 352.141632,889.824524 353.196777,876.725098 
	C354.190460,864.388550 356.051788,852.049622 362.923096,841.076660 
	C370.911743,828.319397 382.049255,820.316956 396.648041,816.968567 
	C397.424347,816.790466 398.141113,816.352783 399.324890,816.019531 
M438.969574,855.737366 
	C431.503082,843.371338 415.691681,840.646057 403.255035,845.022827 
	C391.316254,849.224365 386.792328,859.700317 386.300049,872.640381 
	C405.173706,872.640381 424.044250,872.640381 444.456696,872.640381 
	C442.481903,866.733093 440.770508,861.613708 438.969574,855.737366 
z"/>
<path fill="#002A4E" opacity="1.000000" stroke="none" 
	d="
M666.747070,1168.250732 
	C675.523621,1176.065796 685.405273,1177.806396 696.481506,1176.316040 
	C706.424988,1174.978027 714.785950,1171.145386 721.666138,1163.892700 
	C723.817505,1161.624756 726.109741,1161.883057 728.400757,1163.909424 
	C733.560242,1168.472900 738.927002,1172.815674 743.890808,1177.580322 
	C746.099731,1179.700439 745.245178,1182.129883 743.122925,1184.418579 
	C732.319275,1196.069946 719.165894,1202.913818 703.378845,1205.077759 
	C689.060730,1207.040649 674.973694,1207.280884 661.214355,1202.049805 
	C643.844177,1195.446045 633.048462,1182.851807 628.045349,1165.212158 
	C624.390686,1152.326782 623.144287,1139.053467 624.110229,1125.749268 
	C625.155762,1111.348755 627.064026,1097.022827 635.732483,1084.683350 
	C644.997620,1071.494507 657.858032,1064.413330 673.588806,1061.977295 
	C685.908569,1060.069580 697.915894,1060.614258 709.784424,1064.900635 
	C729.880920,1072.158691 741.068665,1086.810791 744.864258,1107.239746 
	C746.649170,1116.846680 747.081848,1126.712891 747.970764,1136.475830 
	C748.597778,1143.361694 746.994080,1144.997070 740.150879,1144.998169 
	C714.488281,1145.002686 688.825745,1145.000000 663.163147,1145.000000 
	C661.542603,1145.000000 659.922058,1145.000000 658.038269,1145.000000 
	C657.582153,1154.230957 660.900940,1161.522705 666.747070,1168.250732 
M672.504883,1119.000000 
	C686.274536,1119.000000 700.044189,1119.000000 713.773560,1119.000000 
	C714.454041,1107.140747 709.622803,1097.881104 700.468506,1092.925293 
	C689.858398,1087.181396 678.895203,1087.328735 669.110962,1093.750610 
	C660.621338,1099.322754 656.771667,1108.171875 658.314514,1119.000000 
	C662.889099,1119.000000 667.198669,1119.000000 672.504883,1119.000000 
z"/>
<path fill="#002A4E" opacity="1.000000" stroke="none" 
	d="
M496.000122,870.193604 
	C497.458191,859.442322 499.724304,849.168030 505.217499,840.403320 
	C510.686951,831.676453 518.449585,824.439209 528.160461,820.513000 
	C545.635498,813.447693 563.525024,812.626892 581.580078,818.900696 
	C601.804932,825.928589 613.419189,840.609070 616.709656,861.054138 
	C618.895996,874.638855 619.379578,888.716614 618.717773,902.482056 
	C617.988525,917.650818 613.517517,932.255432 602.620300,943.624939 
	C594.992920,951.582886 585.297791,956.672668 574.458313,958.925781 
	C559.016785,962.135498 543.870422,961.422852 529.080811,955.102295 
	C513.304871,948.360107 503.695282,936.445740 499.080811,920.372742 
	C495.343964,907.356628 494.562897,893.912720 495.032745,880.415894 
	C495.146301,877.153992 495.666718,873.906250 496.000122,870.193604 
M536.423035,853.068115 
	C530.774414,861.645447 529.237366,871.376282 529.091797,881.304993 
	C528.973633,889.368713 529.137390,897.510132 530.130066,905.498535 
	C531.479004,916.353638 536.252258,925.925659 548.096436,929.570557 
	C564.498840,934.618164 578.715820,926.602173 582.829407,912.766052 
	C586.835083,899.292908 586.725769,885.222107 584.759521,871.421082 
	C583.904236,865.417542 581.537842,859.183105 578.280212,854.055786 
	C570.149475,841.258301 546.138733,842.132874 536.423035,853.068115 
z"/>
<path fill="#002A4E" opacity="1.000000" stroke="none" 
	d="
M843.759766,1206.000000 
	C836.627991,1206.000000 829.961426,1206.121704 823.300598,1205.977173 
	C803.493042,1205.547241 786.731873,1198.707764 776.684753,1180.848755 
	C772.521179,1173.447998 769.527161,1164.847656 768.318604,1156.458984 
	C766.700684,1145.228394 766.751648,1133.653076 767.152527,1122.263306 
	C767.616638,1109.077515 770.446899,1096.369629 777.935425,1084.985596 
	C785.828918,1072.985718 797.244324,1066.008179 810.691467,1063.197998 
	C833.412476,1058.449951 855.712036,1060.334351 876.868958,1070.910156 
	C879.716858,1072.333862 881.063721,1073.995605 881.033875,1077.159790 
	C880.941162,1086.987915 880.906311,1096.818970 881.053467,1106.645874 
	C881.101318,1109.836914 880.128845,1111.134888 876.787354,1111.056641 
	C869.128174,1110.877319 861.460938,1110.929932 853.799011,1111.036743 
	C851.019043,1111.075684 849.793457,1110.042603 849.977905,1107.232422 
	C850.097595,1105.407715 850.000061,1103.568848 850.000000,1101.736328 
	C849.999939,1093.732544 850.115356,1092.967407 842.059570,1091.751953 
	C831.785767,1090.201904 821.309448,1089.333130 812.005310,1096.345459 
	C806.728638,1100.322266 804.080933,1105.500000 802.784729,1111.633179 
	C799.509949,1127.129517 799.491333,1142.689819 803.136353,1158.067139 
	C805.375244,1167.512573 811.960815,1173.934937 821.398254,1175.481079 
	C828.985352,1176.723999 836.952698,1175.959106 844.729004,1175.600830 
	C848.528503,1175.425781 850.193848,1172.623779 850.024353,1168.772217 
	C849.899902,1165.945557 850.207947,1163.089600 849.944824,1160.282227 
	C849.650696,1157.144043 851.358459,1156.076172 853.922485,1156.040894 
	C861.584412,1155.935425 869.261841,1155.771362 876.900391,1156.206299 
	C878.343994,1156.288574 880.763611,1158.982300 880.816711,1160.536377 
	C881.168884,1170.853271 881.124695,1181.191162 880.862061,1191.513306 
	C880.823364,1193.034790 879.281250,1195.089722 877.863342,1195.911011 
	C869.091125,1200.990845 859.494629,1203.690430 849.479858,1205.014771 
	C847.716492,1205.247925 845.977783,1205.666748 843.759766,1206.000000 
z"/>
<path fill="#002A4E" opacity="1.000000" stroke="none" 
	d="
M689.000977,869.225464 
	C688.666321,873.069458 688.067444,876.476074 688.045349,879.886353 
	C687.942688,895.695557 688.000000,911.505737 688.000000,928.000122 
	C692.380432,928.000122 696.631775,928.066162 700.880005,927.979492 
	C704.380554,927.908081 706.068054,929.397034 706.023438,932.994568 
	C705.940735,939.654480 705.937317,946.317017 706.031067,952.976685 
	C706.067444,955.559082 705.467651,957.043823 702.460632,957.034363 
	C681.169006,956.967468 659.877014,956.998779 638.002930,956.998779 
	C638.002930,948.176392 637.882629,939.579834 638.160339,930.996094 
	C638.193787,929.962097 640.311584,928.260193 641.584900,928.138306 
	C645.515808,927.762085 649.505615,928.001099 653.734619,928.001099 
	C653.734619,900.986938 653.734619,874.267761 653.734619,847.121704 
	C648.664246,847.121704 643.587952,847.121704 638.261841,847.121704 
	C638.261841,837.302979 638.261841,827.906677 638.261841,818.003418 
	C653.910645,818.003418 669.507019,817.925354 685.097595,818.187622 
	C686.087158,818.204224 687.609497,820.770081 687.870422,822.320679 
	C688.327515,825.037048 687.997925,827.885864 687.997925,831.743530 
	C692.226685,828.173950 695.512939,824.831848 699.331177,822.288391 
	C709.059021,815.808472 719.930298,814.861145 731.209717,816.614868 
	C732.332397,816.789490 733.723816,816.507690 734.545471,817.078430 
	C736.192749,818.222534 738.738708,819.758179 738.801636,821.222839 
	C739.192688,830.327881 738.998535,839.458191 738.998535,849.278198 
	C734.221130,848.769592 729.847107,848.557556 725.569824,847.799683 
	C714.002808,845.750244 703.206055,846.740173 695.280457,856.459595 
	C692.431763,859.953125 691.052429,864.644775 689.000977,869.225464 
z"/>
<path fill="#002A4E" opacity="1.000000" stroke="none" 
	d="
M903.000000,933.377197 
	C902.856628,929.288025 904.743469,927.892639 908.204346,927.978577 
	C911.993835,928.072693 915.787598,928.000061 919.783691,928.000061 
	C919.783691,900.873901 919.783691,874.142578 919.783691,846.999817 
	C915.472534,846.999817 911.345398,846.894897 907.226746,847.036072 
	C904.388428,847.133240 902.881714,846.386108 902.951904,843.158203 
	C903.107727,835.996399 903.075745,828.827759 902.964111,821.664307 
	C902.919067,818.769531 904.205872,817.949585 906.902832,817.964417 
	C920.899475,818.041504 934.898254,818.111023 948.893005,817.930054 
	C952.880920,817.878418 953.039795,819.952820 953.034790,822.960083 
	C952.979370,855.953064 953.094299,888.946838 952.895386,921.938782 
	C952.866577,926.722717 954.113403,928.267822 959.008179,928.113403 
	C969.992188,927.767029 970.000000,928.015442 970.000000,939.067688 
	C970.000000,944.870178 970.000000,950.672668 970.000000,957.000000 
	C965.945374,957.000000 962.168335,957.000000 958.391296,957.000000 
	C941.894714,957.000000 925.395996,956.853088 908.903015,957.096924 
	C904.437561,957.162903 902.537903,956.192688 902.898621,951.328552 
	C903.328674,945.528259 903.000000,939.671753 903.000000,933.377197 
z"/>
<path fill="#002A4E" opacity="1.000000" stroke="none" 
	d="
M920.000000,775.013000 
	C920.000366,771.189941 919.670166,767.813721 920.161865,764.561707 
	C920.362244,763.236145 922.312073,761.199829 923.523071,761.158569 
	C932.161255,760.863831 940.818970,760.863953 949.457336,761.157593 
	C950.674438,761.198914 952.797241,763.310242 952.841064,764.523376 
	C953.141357,772.828247 953.141235,781.154236 952.841858,789.459106 
	C952.797913,790.677795 950.686401,792.800354 949.474792,792.841614 
	C940.836548,793.136169 932.178772,793.136169 923.540466,792.842407 
	C922.324097,792.801086 920.275696,790.733154 920.163208,789.465698 
	C919.753052,784.845276 920.000427,780.166565 920.000000,775.013000 
z"/>
<path fill="#002A4E" opacity="1.000000" stroke="none" 
	d="
M1080.249268,1175.939453 
	C1088.524170,1172.772217 1095.506714,1174.686646 1099.554443,1181.050659 
	C1102.922729,1186.346436 1101.422363,1195.776855 1096.153687,1200.265625 
	C1091.768921,1204.001343 1086.563110,1203.850220 1081.428467,1202.080322 
	C1076.103760,1200.244873 1073.516235,1196.249756 1072.968140,1190.678711 
	C1072.345581,1184.351318 1074.492554,1179.458740 1080.249268,1175.939453 
M1079.859985,1180.711060 
	C1074.502686,1186.835571 1075.662598,1191.536133 1079.414551,1196.718994 
	C1082.570557,1201.078735 1087.838989,1201.062256 1092.419434,1198.014038 
	C1091.301758,1196.561279 1090.199829,1195.019043 1088.978516,1193.578247 
	C1088.073364,1192.510620 1087.012939,1191.574463 1085.195312,1189.750610 
	C1085.021729,1193.240967 1084.934082,1195.003784 1084.846436,1196.766479 
	C1084.357788,1197.014160 1083.869141,1197.261963 1083.380615,1197.509644 
	C1082.587158,1196.359375 1081.180542,1195.245361 1081.110107,1194.052612 
	C1080.856201,1189.741943 1081.051392,1185.404785 1081.886475,1181.006470 
	C1082.217896,1180.997681 1082.574585,1181.066772 1082.876953,1180.968628 
	C1090.694458,1178.429321 1093.274292,1180.703857 1092.272339,1188.554932 
	C1091.933594,1191.209839 1093.191528,1194.068481 1093.800415,1197.256226 
	C1099.080811,1191.483521 1099.228638,1186.282593 1094.744263,1181.251343 
	C1090.747803,1176.767578 1085.969238,1176.430054 1079.859985,1180.711060 
z"/>
<path fill="#AA985D" opacity="1.000000" stroke="none" 
	d="
M974.877258,640.337708 
	C980.174011,630.416565 990.359497,626.989258 998.527039,632.039978 
	C1007.472839,637.572021 1009.719971,648.793274 1003.667542,657.710205 
	C1000.558533,662.290833 991.657471,665.168579 985.930542,663.444519 
	C978.818237,661.303467 974.000793,655.563599 974.038757,648.985840 
	C974.054688,646.229553 974.498962,643.475769 974.877258,640.337708 
M983.863159,658.194824 
	C988.875549,661.299011 993.567932,660.713867 998.664673,656.767822 
	C1000.068420,654.239136 1001.932312,651.853577 1002.773499,649.149902 
	C1004.216309,644.512085 1000.549072,637.463806 995.943298,634.976074 
	C991.879700,632.781189 985.872253,633.756531 982.317383,637.188416 
	C975.876648,643.406311 976.308899,651.352966 983.863159,658.194824 
z"/>
<path fill="#FFFFFF" opacity="1.000000" stroke="none" 
	d="
M814.625000,923.998779 
	C805.273132,924.716125 796.494263,923.534790 791.476807,915.579407 
	C787.818542,909.779297 785.327209,902.729980 784.253357,895.931458 
	C782.582275,885.352356 782.894104,874.538757 785.993103,864.043152 
	C788.614563,855.164917 793.281738,847.998108 802.840820,845.736328 
	C812.120911,843.540466 821.750244,843.979126 828.289307,851.335022 
	C832.522339,856.096741 835.084229,863.054443 836.507690,869.448242 
	C839.080383,881.004272 838.592896,892.734558 835.344910,904.352417 
	C832.355103,915.046875 826.268555,922.019226 814.625000,923.998779 
z"/>
<path fill="#FFFFFF" opacity="1.000000" stroke="none" 
	d="
M1017.013672,911.363159 
	C1021.183655,900.768311 1030.479248,898.969666 1039.617554,898.184021 
	C1049.160522,897.363525 1058.828857,898.000732 1069.417969,898.000732 
	C1068.925903,905.113281 1069.406982,912.159180 1067.753662,918.662537 
	C1065.474121,927.629639 1057.749756,931.708862 1049.247559,932.655273 
	C1042.322510,933.426086 1035.088989,932.894470 1028.163940,931.826782 
	C1019.398865,930.475342 1014.145203,920.677429 1017.013672,911.363159 
z"/>
<path fill="#FFFFFF" opacity="1.000000" stroke="none" 
	d="
M439.014343,856.115845 
	C440.770508,861.613708 442.481903,866.733093 444.456696,872.640381 
	C424.044250,872.640381 405.173706,872.640381 386.300049,872.640381 
	C386.792328,859.700317 391.316254,849.224365 403.255035,845.022827 
	C415.691681,840.646057 431.503082,843.371338 439.014343,856.115845 
z"/>
<path fill="#FFFFFF" opacity="1.000000" stroke="none" 
	d="
M672.006531,1119.000000 
	C667.198669,1119.000000 662.889099,1119.000000 658.314514,1119.000000 
	C656.771667,1108.171875 660.621338,1099.322754 669.110962,1093.750610 
	C678.895203,1087.328735 689.858398,1087.181396 700.468506,1092.925293 
	C709.622803,1097.881104 714.454041,1107.140747 713.773560,1119.000000 
	C700.044189,1119.000000 686.274536,1119.000000 672.006531,1119.000000 
z"/>
<path fill="#FFFFFF" opacity="1.000000" stroke="none" 
	d="
M536.694214,852.811279 
	C546.138733,842.132874 570.149475,841.258301 578.280212,854.055786 
	C581.537842,859.183105 583.904236,865.417542 584.759521,871.421082 
	C586.725769,885.222107 586.835083,899.292908 582.829407,912.766052 
	C578.715820,926.602173 564.498840,934.618164 548.096436,929.570557 
	C536.252258,925.925659 531.479004,916.353638 530.130066,905.498535 
	C529.137390,897.510132 528.973633,889.368713 529.091797,881.304993 
	C529.237366,871.376282 530.774414,861.645447 536.694214,852.811279 
z"/>
<path fill="#FFFFFF" opacity="1.000000" stroke="none" 
	d="
M1081.076904,1181.077637 
	C1081.051392,1185.404785 1080.856201,1189.741943 1081.110107,1194.052612 
	C1081.180542,1195.245361 1082.587158,1196.359375 1083.380615,1197.509644 
	C1083.869141,1197.261963 1084.357788,1197.014160 1084.846436,1196.766479 
	C1084.934082,1195.003784 1085.021729,1193.240967 1085.195312,1189.750610 
	C1087.012939,1191.574463 1088.073364,1192.510620 1088.978516,1193.578247 
	C1090.199829,1195.019043 1091.301758,1196.561279 1092.419434,1198.014038 
	C1087.838989,1201.062256 1082.570557,1201.078735 1079.414551,1196.718994 
	C1075.662598,1191.536133 1074.502686,1186.835571 1080.291016,1180.691772 
	C1080.840210,1180.807617 1080.958618,1180.942627 1081.076904,1181.077637 
z"/>
<path fill="#FFFFFF" opacity="1.000000" stroke="none" 
	d="
M1080.562622,1180.455322 
	C1085.969238,1176.430054 1090.747803,1176.767578 1094.744263,1181.251343 
	C1099.228638,1186.282593 1099.080811,1191.483521 1093.800415,1197.256226 
	C1093.191528,1194.068481 1091.933594,1191.209839 1092.272339,1188.554932 
	C1093.274292,1180.703857 1090.694458,1178.429321 1082.876953,1180.968628 
	C1082.574585,1181.066772 1082.217896,1180.997681 1081.481689,1181.041992 
	C1080.958618,1180.942627 1080.840210,1180.807617 1080.562622,1180.455322 
z"/>
<path fill="#FFFFFF" opacity="1.000000" stroke="none" 
	d="
M983.428833,657.622437 
	C976.308899,651.352966 975.876648,643.406311 982.317383,637.188416 
	C985.872253,633.756531 991.879700,632.781189 995.943298,634.976074 
	C1000.549072,637.463806 1004.216309,644.512085 1002.773499,649.149902 
	C1001.932312,651.853577 1000.068420,654.239136 998.336548,656.885803 
	C998.008362,657.003784 998.035461,657.034058 998.005554,656.638794 
	C997.279480,653.045593 995.230591,649.372986 996.153503,646.743286 
	C998.457703,640.177856 996.473877,637.364197 989.048157,636.943970 
	C985.129761,636.722229 983.705322,638.114685 983.936279,642.044922 
	C984.226929,646.989929 984.051392,651.962341 983.901978,657.085754 
	C983.726929,657.248596 983.428833,657.622437 983.428833,657.622437 
z"/>
<path fill="#FFFFFF" opacity="1.000000" stroke="none" 
	d="
M997.997314,656.986755 
	C993.567932,660.713867 988.875549,661.299011 983.645996,657.908630 
	C983.428833,657.622437 983.726929,657.248596 984.323975,657.115845 
	C991.362488,656.856873 985.964355,651.213623 989.621704,648.698975 
	C990.602295,649.832397 992.773254,651.193542 992.785583,652.573914 
	C992.820862,656.533508 994.767395,657.340149 998.035461,657.034058 
	C998.035461,657.034058 998.008362,657.003784 997.997314,656.986755 
z"/>
<path fill="#AA985D" opacity="1.000000" stroke="none" 
	d="
M998.005554,656.638794 
	C994.767395,657.340149 992.820862,656.533508 992.785583,652.573914 
	C992.773254,651.193542 990.602295,649.832397 989.621704,648.698975 
	C985.964355,651.213623 991.362488,656.856873 984.499084,656.953003 
	C984.051392,651.962341 984.226929,646.989929 983.936279,642.044922 
	C983.705322,638.114685 985.129761,636.722229 989.048157,636.943970 
	C996.473877,637.364197 998.457703,640.177856 996.153503,646.743286 
	C995.230591,649.372986 997.279480,653.045593 998.005554,656.638794 
z"/>
</svg>