<svg width="32" height="17" version="1.1" xmlns="http://www.w3.org/2000/svg" desc="Created with imagetracer.js version 1.2.6" ><path fill="rgb(0,0,0)" stroke="rgb(0,0,0)" stroke-width="1" opacity="1" d="M 0 0 L 13 0.5 L 12 1.5 L 12.5 3 Q 10.25 2.25 11 4.5 L 10.5 6 L 16.5 6 L 17 4 L 19.5 4 Q 21.75 3 21 0 Q 24 -1.25 23 2.5 L 21 4.5 L 21.5 5 L 27.5 5 L 31.5 3 L 32 17 L 0 17 L 0 6 L 5.5 6 L 11 2.5 L 10.5 1 L 2.5 1 L 1 2.5 L 1.5 4 L 0 4 L 0 0 Z " /><path fill="rgb(98,85,57)" stroke="rgb(98,85,57)" stroke-width="1" opacity="1" d="M 29.5 1 L 29.5 2 L 29.5 1 Z " /><path fill="rgb(98,85,57)" stroke="rgb(98,85,57)" stroke-width="1" opacity="1" d="M 31.5 1 L 31.5 2 L 31.5 1 Z " /><path fill="rgb(98,85,57)" stroke="rgb(98,85,57)" stroke-width="1" opacity="1" d="M 3.5 2 L 3.5 3 L 3.5 2 Z " /><path fill="rgb(98,85,57)" stroke="rgb(98,85,57)" stroke-width="1" opacity="1" d="M 18.5 2 L 18.5 3 L 18.5 2 Z " /><path fill="rgb(98,85,57)" stroke="rgb(98,85,57)" stroke-width="1" opacity="1" d="M 24.5 2 L 24.5 3 L 24.5 2 Z " /><path fill="rgb(98,85,57)" stroke="rgb(98,85,57)" stroke-width="1" opacity="1" d="M 22.5 4 L 22.5 5 L 22.5 4 Z " /><path fill="rgb(98,85,57)" stroke="rgb(98,85,57)" stroke-width="1" opacity="1" d="M 5.5 5 L 5.5 6 L 5.5 5 Z " /><path fill="rgb(84,94,90)" stroke="rgb(84,94,90)" stroke-width="1" opacity="1" d="M 24.5 1 L 24.5 2 L 24.5 1 Z " /><path fill="rgb(84,94,90)" stroke="rgb(84,94,90)" stroke-width="1" opacity="1" d="M 27.5 1 L 29 1.5 L 27.5 2 L 27.5 1 Z " /><path fill="rgb(84,94,90)" stroke="rgb(84,94,90)" stroke-width="1" opacity="1" d="M 5.5 2 Q 8.5 1.5 9 3.5 L 7.5 3 Q 4.5 3.5 5.5 2 Z " /><path fill="rgb(84,94,90)" stroke="rgb(84,94,90)" stroke-width="1" opacity="1" d="M 13.5 2 L 13.5 3 L 13.5 2 Z " /><path fill="rgb(84,94,90)" stroke="rgb(84,94,90)" stroke-width="1" opacity="1" d="M 16.5 2 L 18 2.5 L 16.5 3 L 16.5 2 Z " /><path fill="rgb(84,94,90)" stroke="rgb(84,94,90)" stroke-width="1" opacity="1" d="M 26.5 3 L 27 4.5 L 26 4.5 L 26.5 3 Z " /><path fill="rgb(84,94,90)" stroke="rgb(84,94,90)" stroke-width="1" opacity="1" d="M 1.5 4 L 1.5 5 L 1.5 4 Z " /><path fill="rgb(40,37,2)" stroke="rgb(40,37,2)" stroke-width="1" opacity="1" d="M 20.5 0 L 20.5 1 L 20.5 0 Z " /><path fill="rgb(40,37,2)" stroke="rgb(40,37,2)" stroke-width="1" opacity="1" d="M 10.5 1 L 11 2.5 L 10 2.5 L 10.5 1 Z " /><path fill="rgb(40,37,2)" stroke="rgb(40,37,2)" stroke-width="1" opacity="1" d="M 2.5 2 L 2.5 3 L 2.5 2 Z " /><path fill="rgb(40,37,2)" stroke="rgb(40,37,2)" stroke-width="1" opacity="1" d="M 31.5 2 Q 33 3 30.5 4 Q 29 3 31.5 2 Z " /><path fill="rgb(40,37,2)" stroke="rgb(40,37,2)" stroke-width="1" opacity="1" d="M 6.5 4 L 6.5 5 L 6.5 4 Z " /><path fill="rgb(40,37,2)" stroke="rgb(40,37,2)" stroke-width="1" opacity="1" d="M 27.5 4 L 27.5 5 L 27.5 4 Z " /><path fill="rgb(40,37,2)" stroke="rgb(40,37,2)" stroke-width="1" opacity="1" d="M 16.5 5 L 16.5 6 L 16.5 5 Z " /><path fill="rgb(44,58,63)" stroke="rgb(44,58,63)" stroke-width="1" opacity="1" d="M 13.5 0 L 20 0.5 L 13.5 1 L 13.5 0 Z " /><path fill="rgb(44,58,63)" stroke="rgb(44,58,63)" stroke-width="1" opacity="1" d="M 2.5 1 L 2.5 2 L 2.5 1 Z " /><path fill="rgb(44,58,63)" stroke="rgb(44,58,63)" stroke-width="1" opacity="1" d="M 23.5 1 L 23.5 2 L 23.5 1 Z " /><path fill="rgb(44,58,63)" stroke="rgb(44,58,63)" stroke-width="1" opacity="1" d="M 22.5 3 L 22.5 4 L 22.5 3 Z " /><path fill="rgb(87,113,111)" stroke="rgb(87,113,111)" stroke-width="1" opacity="1" d="M 2.5 3 L 2.5 4 L 2.5 3 Z " /><path fill="rgb(87,113,111)" stroke="rgb(87,113,111)" stroke-width="1" opacity="1" d="M 15.5 3 L 19 3.5 L 15.5 4 L 15.5 3 Z " /><path fill="rgb(87,113,111)" stroke="rgb(87,113,111)" stroke-width="1" opacity="1" d="M 23.5 3 L 23.5 4 L 23.5 3 Z " /><path fill="rgb(87,113,111)" stroke="rgb(87,113,111)" stroke-width="1" opacity="1" d="M 4.5 4 L 6 4.5 Q 5 7 0.5 6 L 0.5 5 Q 3.75 5.75 4.5 4 Z " /><path fill="rgb(87,113,111)" stroke="rgb(87,113,111)" stroke-width="1" opacity="1" d="M 11.5 4 L 11.5 5 L 11.5 4 Z " /><path fill="rgb(109,112,48)" stroke="rgb(109,112,48)" stroke-width="1" opacity="1" d="M 20.5 2 Q 22 3 19.5 4 Q 18 3 20.5 2 Z " /><path fill="rgb(109,112,48)" stroke="rgb(109,112,48)" stroke-width="1" opacity="1" d="M 13.5 3 L 13.5 4 L 13.5 3 Z " /><path fill="rgb(109,112,48)" stroke="rgb(109,112,48)" stroke-width="1" opacity="1" d="M 27.5 3 L 27.5 4 L 27.5 3 Z " /><path fill="rgb(109,112,48)" stroke="rgb(109,112,48)" stroke-width="1" opacity="1" d="M 2.5 4 L 2.5 5 L 2.5 4 Z " /><path fill="rgb(109,112,48)" stroke="rgb(109,112,48)" stroke-width="1" opacity="1" d="M 16.5 4 L 16.5 5 L 16.5 4 Z " /><path fill="rgb(45,36,37)" stroke="rgb(45,36,37)" stroke-width="1" opacity="1" d="M 9.5 3 L 9.5 4 L 9.5 3 Z " /><path fill="rgb(45,36,37)" stroke="rgb(45,36,37)" stroke-width="1" opacity="1" d="M 12.5 3 L 12.5 4 L 12.5 3 Z " /><path fill="rgb(45,36,37)" stroke="rgb(45,36,37)" stroke-width="1" opacity="1" d="M 28.5 3 L 30 3.5 L 28.5 4 L 28.5 3 Z " /><path fill="rgb(45,36,37)" stroke="rgb(45,36,37)" stroke-width="1" opacity="1" d="M 11.5 5 L 16 5.5 L 11.5 6 L 11.5 5 Z " /><path fill="rgb(0,20,42)" stroke="rgb(0,20,42)" stroke-width="1" opacity="1" d="M 12.5 1 L 12.5 2 L 12.5 1 Z " /><path fill="rgb(0,20,42)" stroke="rgb(0,20,42)" stroke-width="1" opacity="1" d="M 1.5 2 L 1.5 3 L 1.5 2 Z " /><path fill="rgb(0,20,42)" stroke="rgb(0,20,42)" stroke-width="1" opacity="1" d="M 11.5 3 L 11.5 4 L 11.5 3 Z " /><path fill="rgb(0,20,42)" stroke="rgb(0,20,42)" stroke-width="1" opacity="1" d="M 0.5 4 L 0.5 5 L 0.5 4 Z " /><path fill="rgb(64,65,67)" stroke="rgb(64,65,67)" stroke-width="1" opacity="1" d="M 9.5 1 L 10 2.5 L 9 2.5 L 9.5 1 Z " /><path fill="rgb(64,65,67)" stroke="rgb(64,65,67)" stroke-width="1" opacity="1" d="M 13.5 1 L 13.5 2 L 13.5 1 Z " /><path fill="rgb(64,65,67)" stroke="rgb(64,65,67)" stroke-width="1" opacity="1" d="M 16.5 1 L 18 1.5 L 15.5 3 Q 14 2 16.5 1 Z " /><path fill="rgb(64,65,67)" stroke="rgb(64,65,67)" stroke-width="1" opacity="1" d="M 20.5 1 L 20.5 2 L 20.5 1 Z " /><path fill="rgb(64,65,67)" stroke="rgb(64,65,67)" stroke-width="1" opacity="1" d="M 26.5 1 L 26.5 2 L 26.5 1 Z " /><path fill="rgb(64,65,67)" stroke="rgb(64,65,67)" stroke-width="1" opacity="1" d="M 30.5 2 L 30.5 3 L 30.5 2 Z " /><path fill="rgb(64,65,67)" stroke="rgb(64,65,67)" stroke-width="1" opacity="1" d="M 25.5 3 L 25.5 4 L 25.5 3 Z " /><path fill="rgb(64,64,64)" stroke="rgb(64,64,64)" stroke-width="1" opacity="1" d="M 24.5 0 L 32 0.5 L 29.5 3 L 25 3.5 L 25.5 5 L 23 4.5 L 25 1.5 L 24.5 0 Z M 27 1 L 27 2 L 30 2 L 27 1 Z " /><path fill="rgb(64,64,64)" stroke="rgb(64,64,64)" stroke-width="1" opacity="1" d="M 3.5 1 L 8.5 1 L 9 2.5 L 7.5 4 Q 4.25 3.25 3.5 5 L 3 3.5 L 4 2.5 L 3.5 1 Z M 6 2 L 6 3 L 8 3 L 6 2 Z " /><path fill="rgb(64,64,64)" stroke="rgb(64,64,64)" stroke-width="1" opacity="1" d="M 14 1 L 16 1.5 L 15 3.5 L 15.5 5 L 12 4.5 L 14 4 L 14 1 Z " /><path fill="rgb(64,64,64)" stroke="rgb(64,64,64)" stroke-width="1" opacity="1" d="M 18.5 1 Q 20.75 0.25 20 2.5 Q 19 4 18 1.5 L 18.5 1 Z " /><path fill="rgb(0,1,47)" stroke="rgb(0,1,47)" stroke-width="1" opacity="1" d="M 23.5 0 L 23.5 1 L 23.5 0 Z " /><path fill="rgb(0,1,47)" stroke="rgb(0,1,47)" stroke-width="1" opacity="1" d="M 23.5 2 L 23.5 3 L 23.5 2 Z " /><path fill="rgb(0,1,47)" stroke="rgb(0,1,47)" stroke-width="1" opacity="1" d="M 21.5 4 L 21.5 5 L 21.5 4 Z " /><path fill="rgb(0,1,47)" stroke="rgb(0,1,47)" stroke-width="1" opacity="1" d="M 10.5 5 L 10.5 6 L 10.5 5 Z " /></svg>